<svg width="108" height="107" viewBox="0 0 108 107" fill="none" xmlns="http://www.w3.org/2000/svg">
<g filter="url(#filter0_dddddd_25_1501)">
<rect x="35.9783" y="0.582981" width="35.8053" height="25.4659" rx="8.97021" fill="#F2B8EC"/>
</g>
<path d="M57.1634 17.4876V9.4409H50.6076V17.4876H52.1346V17.0102C52.1346 16.4099 52.6002 15.9207 53.1641 15.9207H54.6068C55.1714 15.9207 55.6402 16.4099 55.6402 17.0102V17.4876H57.1634ZM52.4178 14.6109C52.4178 14.6536 52.4102 14.698 52.3949 14.7374C52.3795 14.7768 52.3581 14.8133 52.3298 14.8436C52.3015 14.8737 52.2674 14.8966 52.2303 14.9129C52.1933 14.9292 52.1518 14.9373 52.1116 14.9373H51.3883C51.3483 14.9373 51.3067 14.9292 51.2696 14.9129C51.2327 14.8966 51.1985 14.8737 51.1702 14.8436C51.1418 14.8134 51.1205 14.777 51.1052 14.7374C51.0899 14.698 51.0821 14.6537 51.0821 14.6109V13.8478C51.0821 13.8051 51.0897 13.7608 51.1052 13.7213C51.1205 13.6818 51.1419 13.6454 51.1702 13.6151C51.1985 13.5849 51.2327 13.5621 51.2696 13.5458C51.3067 13.5294 51.3483 13.5212 51.3883 13.5212H52.1116C52.1516 13.5212 52.1932 13.5293 52.2303 13.5458C52.2672 13.5621 52.3014 13.5849 52.3298 13.6151C52.3581 13.6454 52.3795 13.6817 52.3949 13.7213C52.4102 13.7607 52.4178 13.805 52.4178 13.8478V14.6109ZM52.4178 12.3543C52.4178 12.397 52.4102 12.4412 52.3949 12.4808C52.3795 12.5202 52.3581 12.5567 52.3298 12.5868C52.3015 12.6171 52.2674 12.6398 52.2303 12.6562C52.1933 12.6725 52.1518 12.6807 52.1116 12.6807H51.3883C51.3483 12.6807 51.3067 12.6726 51.2696 12.6562C51.2327 12.6398 51.1985 12.617 51.1702 12.5868C51.1418 12.5567 51.1205 12.5202 51.1052 12.4808C51.0899 12.4414 51.0821 12.397 51.0821 12.3543V11.5872C51.0821 11.5445 51.0897 11.5042 51.1052 11.4647C51.1205 11.4252 51.1419 11.3888 51.1702 11.3585C51.1985 11.3284 51.2327 11.3015 51.2696 11.285C51.3067 11.2687 51.3483 11.2605 51.3883 11.2605H52.1116C52.1516 11.2605 52.1932 11.2686 52.2303 11.285C52.2672 11.3013 52.3014 11.3282 52.3298 11.3585C52.3581 11.3887 52.3795 11.4251 52.3949 11.4647C52.4102 11.5041 52.4178 11.5443 52.4178 11.5872V12.3543ZM53.2177 11.5505C53.2177 11.5078 53.2253 11.4635 53.2407 11.4239C53.256 11.3845 53.2775 11.3481 53.3057 11.3178C53.3342 11.2876 53.3682 11.2648 53.4053 11.2484C53.4423 11.2321 53.4839 11.224 53.524 11.224H54.1707C54.2108 11.224 54.2523 11.2321 54.2894 11.2484C54.3264 11.2648 54.3605 11.2876 54.389 11.3178C54.4172 11.3479 54.4387 11.3844 54.454 11.4239C54.4693 11.4634 54.477 11.5076 54.477 11.5505V12.236C54.477 12.2787 54.4694 12.3189 54.454 12.3583C54.4387 12.3978 54.4172 12.4342 54.389 12.4645C54.3607 12.4946 54.3265 12.5215 54.2894 12.5379C54.2524 12.5542 54.2108 12.5624 54.1707 12.5624H53.524C53.4839 12.5624 53.4423 12.5543 53.4053 12.5379C53.3683 12.5215 53.3342 12.4946 53.3057 12.4645C53.2775 12.4343 53.256 12.3979 53.2407 12.3583C53.2254 12.3189 53.2177 12.2787 53.2177 12.236V11.5505ZM54.4959 14.5129C54.4959 14.5556 54.4883 14.5959 54.4728 14.6354C54.4575 14.6748 54.4361 14.7113 54.4078 14.7414C54.3795 14.7717 54.3454 14.7985 54.3084 14.815C54.2713 14.8313 54.2297 14.8394 54.1897 14.8394H53.5237C53.4837 14.8394 53.4421 14.8313 53.4051 14.815C53.3681 14.7986 53.3339 14.7717 53.3055 14.7414C53.2772 14.7113 53.2558 14.6748 53.2405 14.6354C53.2252 14.596 53.2174 14.5558 53.2174 14.5129V13.8071C53.2174 13.7644 53.225 13.7201 53.2405 13.6805C53.2558 13.6411 53.2772 13.6047 53.3055 13.5745C53.3339 13.5443 53.368 13.5215 53.4051 13.5052C53.4421 13.4888 53.4837 13.4806 53.5237 13.4806H54.1897C54.2297 13.4806 54.2713 13.4887 54.3084 13.5052C54.3454 13.5215 54.3795 13.5443 54.4078 13.5745C54.4362 13.6047 54.4575 13.6411 54.4728 13.6805C54.4881 13.7201 54.4959 13.7644 54.4959 13.8071V14.5129ZM55.3531 11.5872C55.3531 11.5445 55.3607 11.5042 55.3761 11.4647C55.3915 11.4252 55.4129 11.3888 55.4412 11.3585C55.4695 11.3284 55.5036 11.3015 55.5406 11.285C55.5777 11.2687 55.6192 11.2605 55.6593 11.2605H56.3826C56.4226 11.2605 56.4641 11.2686 56.5012 11.285C56.5382 11.3013 56.5724 11.3282 56.6008 11.3585C56.6291 11.3887 56.6505 11.4251 56.6658 11.4647C56.6811 11.5041 56.6887 11.5443 56.6887 11.5872V12.3543C56.6887 12.397 56.6811 12.4412 56.6658 12.4808C56.6505 12.5202 56.6291 12.5567 56.6008 12.5868C56.5725 12.6171 56.5383 12.6398 56.5012 12.6562C56.4642 12.6725 56.4226 12.6807 56.3826 12.6807H55.6593C55.6192 12.6807 55.5777 12.6726 55.5406 12.6562C55.5036 12.6398 55.4695 12.617 55.4412 12.5868C55.4128 12.5567 55.3915 12.5202 55.3761 12.4808C55.3608 12.4414 55.3531 12.397 55.3531 12.3543V11.5872ZM55.5407 14.9128C55.5038 14.8964 55.4696 14.8736 55.4413 14.8434C55.4129 14.8133 55.3916 14.7768 55.3763 14.7373C55.361 14.6978 55.3532 14.6536 55.3532 14.6107V13.8478C55.3532 13.8051 55.3608 13.7608 55.3763 13.7213C55.3916 13.6818 55.413 13.6454 55.4413 13.6151C55.4696 13.5849 55.5038 13.5621 55.5407 13.5458C55.5778 13.5294 55.6194 13.5212 55.6594 13.5212H56.3827C56.4227 13.5212 56.4642 13.5293 56.5014 13.5458C56.5383 13.5621 56.5725 13.5849 56.6009 13.6151C56.6292 13.6454 56.6506 13.6817 56.6659 13.7213C56.6813 13.7607 56.6888 13.805 56.6888 13.8478V14.6109C56.6888 14.6536 56.6813 14.698 56.6659 14.7374C56.6506 14.7768 56.6292 14.8133 56.6009 14.8436C56.5726 14.8737 56.5385 14.8966 56.5014 14.9129C56.4644 14.9292 56.4227 14.9373 56.3827 14.9373H55.6593C55.6192 14.9373 55.5777 14.9291 55.5407 14.9128Z" fill="white"/>
<path d="M58.5455 7.43228H52.2314L51.0172 8.78764H57.3271L58.5455 7.43228Z" fill="white"/>
<path d="M57.7755 16.9987L58.9622 15.6739V7.9124L57.7755 9.23251V16.9987Z" fill="white"/>
<path d="M53.1634 16.5721C52.9312 16.5721 52.7458 16.7702 52.7458 17.0108V17.4865H55.0261V17.0108C55.0261 16.7702 54.8412 16.5721 54.6073 16.5721H53.1634Z" fill="white"/>
<defs>
<filter id="filter0_dddddd_25_1501" x="7.65011e-06" y="1.79299e-07" width="107.762" height="107" filterUnits="userSpaceOnUse" color-interpolation-filters="sRGB">
<feFlood flood-opacity="0" result="BackgroundImageFix"/>
<feColorMatrix in="SourceAlpha" type="matrix" values="0 0 0 0 0 0 0 0 0 0 0 0 0 0 0 0 0 0 127 0" result="hardAlpha"/>
<feOffset dy="0.830575"/>
<feGaussianBlur stdDeviation="0.705989"/>
<feColorMatrix type="matrix" values="0 0 0 0 0.94902 0 0 0 0 0.721569 0 0 0 0 0.92549 0 0 0 0.0168519 0"/>
<feBlend mode="normal" in2="BackgroundImageFix" result="effect1_dropShadow_25_1501"/>
<feColorMatrix in="SourceAlpha" type="matrix" values="0 0 0 0 0 0 0 0 0 0 0 0 0 0 0 0 0 0 127 0" result="hardAlpha"/>
<feOffset dy="3.65453"/>
<feGaussianBlur stdDeviation="1.46181"/>
<feColorMatrix type="matrix" values="0 0 0 0 0.94902 0 0 0 0 0.721569 0 0 0 0 0.92549 0 0 0 0.0274815 0"/>
<feBlend mode="normal" in2="effect1_dropShadow_25_1501" result="effect2_dropShadow_25_1501"/>
<feColorMatrix in="SourceAlpha" type="matrix" values="0 0 0 0 0 0 0 0 0 0 0 0 0 0 0 0 0 0 127 0" result="hardAlpha"/>
<feOffset dy="8.97021"/>
<feGaussianBlur stdDeviation="2.91532"/>
<feColorMatrix type="matrix" values="0 0 0 0 0.94902 0 0 0 0 0.721569 0 0 0 0 0.92549 0 0 0 0.035 0"/>
<feBlend mode="normal" in2="effect2_dropShadow_25_1501" result="effect3_dropShadow_25_1501"/>
<feColorMatrix in="SourceAlpha" type="matrix" values="0 0 0 0 0 0 0 0 0 0 0 0 0 0 0 0 0 0 127 0" result="hardAlpha"/>
<feOffset dy="17.276"/>
<feGaussianBlur stdDeviation="5.71436"/>
<feColorMatrix type="matrix" values="0 0 0 0 0.94902 0 0 0 0 0.721569 0 0 0 0 0.92549 0 0 0 0.0425185 0"/>
<feBlend mode="normal" in2="effect3_dropShadow_25_1501" result="effect4_dropShadow_25_1501"/>
<feColorMatrix in="SourceAlpha" type="matrix" values="0 0 0 0 0 0 0 0 0 0 0 0 0 0 0 0 0 0 127 0" result="hardAlpha"/>
<feOffset dy="29.0701"/>
<feGaussianBlur stdDeviation="10.5068"/>
<feColorMatrix type="matrix" values="0 0 0 0 0.94902 0 0 0 0 0.721569 0 0 0 0 0.92549 0 0 0 0.0531481 0"/>
<feBlend mode="normal" in2="effect4_dropShadow_25_1501" result="effect5_dropShadow_25_1501"/>
<feColorMatrix in="SourceAlpha" type="matrix" values="0 0 0 0 0 0 0 0 0 0 0 0 0 0 0 0 0 0 127 0" result="hardAlpha"/>
<feOffset dy="44.8511"/>
<feGaussianBlur stdDeviation="17.9404"/>
<feColorMatrix type="matrix" values="0 0 0 0 0.94902 0 0 0 0 0.721569 0 0 0 0 0.92549 0 0 0 0.07 0"/>
<feBlend mode="normal" in2="effect5_dropShadow_25_1501" result="effect6_dropShadow_25_1501"/>
<feBlend mode="normal" in="SourceGraphic" in2="effect6_dropShadow_25_1501" result="shape"/>
</filter>
</defs>
</svg>
