<svg width="106" height="111" viewBox="0 0 106 111" fill="none" xmlns="http://www.w3.org/2000/svg">
<g filter="url(#filter0_dddddd_25_1495)">
<rect x="36.0842" y="0.584697" width="33.5687" height="29.226" rx="8.97021" fill="#4DDFFD"/>
</g>
<path d="M50.9404 18.7153L50.374 19.4112L48.3529 16.9913L49.8009 15.225C50.0942 14.8647 50.4642 14.6133 50.8685 14.4998C51.2729 14.3862 51.695 14.4152 52.0866 14.5833L52.4048 14.7199H54.3569C54.4395 14.7198 54.5212 14.7401 54.5972 14.7797C54.6733 14.8192 54.7421 14.8771 54.7995 14.9499C54.857 15.0227 54.902 15.109 54.9318 15.2036C54.9616 15.2982 54.9757 15.3992 54.9731 15.5006C54.9637 15.701 54.8917 15.8892 54.7721 16.0259C54.6524 16.1626 54.4944 16.2372 54.331 16.2342H53.1599C53.0964 16.2342 53.0354 16.2652 52.9905 16.3204C52.9456 16.3756 52.9203 16.4505 52.9203 16.5286C52.9203 16.6066 52.9456 16.6815 52.9905 16.7367C53.0354 16.7919 53.0964 16.8229 53.1599 16.8229H54.3349C54.6215 16.8247 54.8976 16.6909 55.1062 16.4493C55.3147 16.2078 55.4397 15.8769 55.4552 15.5253C55.4552 15.5194 55.4552 15.5135 55.4552 15.5065L56.5419 14.0027C56.6523 13.8453 56.8078 13.7462 56.9761 13.7261C57.1444 13.7059 57.3126 13.7662 57.4456 13.8944C57.5115 13.9614 57.5658 14.0439 57.6052 14.1371C57.6447 14.2303 57.6686 14.3323 57.6754 14.437C57.6823 14.5417 57.6721 14.647 57.6453 14.7468C57.6185 14.8465 57.5757 14.9387 57.5194 15.0178L55.3497 18.0794C55.2065 18.2811 55.0298 18.4426 54.8314 18.5531C54.633 18.6637 54.4176 18.7205 54.1997 18.72L50.9404 18.7153ZM55.4207 12.0586C55.4207 11.9103 55.3727 11.768 55.2873 11.6631C55.202 11.5582 55.0862 11.4993 54.9654 11.4993H54.2946V10.675C54.2892 10.5312 54.239 10.3956 54.1543 10.2962C54.0696 10.1968 53.957 10.1413 53.8399 10.1413C53.7228 10.1413 53.6101 10.1968 53.5255 10.2962C53.4408 10.3956 53.3905 10.5312 53.3851 10.675V11.4993H52.7143C52.6528 11.4958 52.5914 11.5077 52.5338 11.5342C52.4762 11.5607 52.4235 11.6013 52.379 11.6535C52.3345 11.7058 52.2991 11.7685 52.2749 11.8381C52.2507 11.9076 52.2382 11.9824 52.2382 12.058C52.2382 12.1336 52.2507 12.2085 52.2749 12.278C52.2991 12.3475 52.3345 12.4103 52.379 12.4625C52.4235 12.5147 52.4762 12.5553 52.5338 12.5818C52.5914 12.6084 52.6528 12.6202 52.7143 12.6168H53.3851V13.441C53.3905 13.5848 53.4408 13.7205 53.5255 13.8199C53.6101 13.9193 53.7228 13.9747 53.8399 13.9747C53.957 13.9747 54.0696 13.9193 54.1543 13.8199C54.239 13.7205 54.2892 13.5848 54.2946 13.441V12.6168H54.9654C55.086 12.6168 55.2017 12.558 55.287 12.4534C55.3723 12.3487 55.4204 12.2068 55.4207 12.0586ZM51.0564 8.95932V9.56693H50.5628C50.4739 9.56693 50.3885 9.61035 50.3256 9.68764C50.2627 9.76493 50.2274 9.86976 50.2274 9.97907C50.2274 10.0884 50.2627 10.1932 50.3256 10.2705C50.3885 10.3478 50.4739 10.3912 50.5628 10.3912H51.0573V10.9988C51.0573 11.1081 51.0927 11.213 51.1556 11.2902C51.2185 11.3675 51.3038 11.411 51.3927 11.411C51.4817 11.411 51.567 11.3675 51.6299 11.2902C51.6928 11.213 51.7282 11.1081 51.7282 10.9988V10.3889H52.2198C52.3087 10.3889 52.3941 10.3454 52.457 10.2681C52.5199 10.1909 52.5552 10.086 52.5552 9.97671C52.5552 9.86741 52.5199 9.76258 52.457 9.68529C52.3941 9.608 52.3087 9.56457 52.2198 9.56457H51.7253V8.95932C51.7253 8.85001 51.6899 8.74518 51.627 8.66789C51.5641 8.5906 51.4788 8.54718 51.3899 8.54718C51.3009 8.54718 51.2156 8.5906 51.1527 8.66789C51.0898 8.74518 51.0544 8.85001 51.0544 8.95932H51.0564ZM55.2875 7.87127C55.2112 7.87127 55.1381 7.90849 55.0842 7.97474C55.0302 8.04099 54.9999 8.13084 54.9999 8.22453V8.74736H54.5744C54.4982 8.74736 54.4251 8.78458 54.3711 8.85083C54.3172 8.91708 54.2869 9.00693 54.2869 9.10062C54.2869 9.19431 54.3172 9.28417 54.3711 9.35042C54.4251 9.41667 54.4982 9.45389 54.5744 9.45389H54.9999V9.97671C54.9999 10.0704 55.0302 10.1603 55.0842 10.2265C55.1381 10.2928 55.2112 10.33 55.2875 10.33C55.3637 10.33 55.4368 10.2928 55.4907 10.2265C55.5447 10.1603 55.575 10.0704 55.575 9.97671V9.45389H56.0005C56.0382 9.45389 56.0756 9.44475 56.1105 9.42699C56.1454 9.40924 56.1771 9.38322 56.2038 9.35042C56.2305 9.31761 56.2516 9.27867 56.2661 9.23581C56.2805 9.19295 56.288 9.14701 56.288 9.10062C56.288 9.05423 56.2805 9.00829 56.2661 8.96543C56.2516 8.92257 56.2305 8.88363 56.2038 8.85083C56.1771 8.81802 56.1454 8.792 56.1105 8.77425C56.0756 8.7565 56.0382 8.74736 56.0005 8.74736H55.575V8.22453C55.575 8.13084 55.5447 8.04099 55.4907 7.97474C55.4368 7.90849 55.3637 7.87127 55.2875 7.87127Z" fill="white"/>
<defs>
<filter id="filter0_dddddd_25_1495" x="7.67262e-06" y="1.79827e-07" width="105.737" height="111" filterUnits="userSpaceOnUse" color-interpolation-filters="sRGB">
<feFlood flood-opacity="0" result="BackgroundImageFix"/>
<feColorMatrix in="SourceAlpha" type="matrix" values="0 0 0 0 0 0 0 0 0 0 0 0 0 0 0 0 0 0 127 0" result="hardAlpha"/>
<feOffset dy="0.830575"/>
<feGaussianBlur stdDeviation="0.705989"/>
<feColorMatrix type="matrix" values="0 0 0 0 0.301961 0 0 0 0 0.87451 0 0 0 0 0.992157 0 0 0 0.0168519 0"/>
<feBlend mode="normal" in2="BackgroundImageFix" result="effect1_dropShadow_25_1495"/>
<feColorMatrix in="SourceAlpha" type="matrix" values="0 0 0 0 0 0 0 0 0 0 0 0 0 0 0 0 0 0 127 0" result="hardAlpha"/>
<feOffset dy="3.65453"/>
<feGaussianBlur stdDeviation="1.46181"/>
<feColorMatrix type="matrix" values="0 0 0 0 0.301961 0 0 0 0 0.87451 0 0 0 0 0.992157 0 0 0 0.0274815 0"/>
<feBlend mode="normal" in2="effect1_dropShadow_25_1495" result="effect2_dropShadow_25_1495"/>
<feColorMatrix in="SourceAlpha" type="matrix" values="0 0 0 0 0 0 0 0 0 0 0 0 0 0 0 0 0 0 127 0" result="hardAlpha"/>
<feOffset dy="8.97021"/>
<feGaussianBlur stdDeviation="2.91532"/>
<feColorMatrix type="matrix" values="0 0 0 0 0.301961 0 0 0 0 0.87451 0 0 0 0 0.992157 0 0 0 0.035 0"/>
<feBlend mode="normal" in2="effect2_dropShadow_25_1495" result="effect3_dropShadow_25_1495"/>
<feColorMatrix in="SourceAlpha" type="matrix" values="0 0 0 0 0 0 0 0 0 0 0 0 0 0 0 0 0 0 127 0" result="hardAlpha"/>
<feOffset dy="17.276"/>
<feGaussianBlur stdDeviation="5.71436"/>
<feColorMatrix type="matrix" values="0 0 0 0 0.301961 0 0 0 0 0.87451 0 0 0 0 0.992157 0 0 0 0.0425185 0"/>
<feBlend mode="normal" in2="effect3_dropShadow_25_1495" result="effect4_dropShadow_25_1495"/>
<feColorMatrix in="SourceAlpha" type="matrix" values="0 0 0 0 0 0 0 0 0 0 0 0 0 0 0 0 0 0 127 0" result="hardAlpha"/>
<feOffset dy="29.0701"/>
<feGaussianBlur stdDeviation="10.5068"/>
<feColorMatrix type="matrix" values="0 0 0 0 0.301961 0 0 0 0 0.87451 0 0 0 0 0.992157 0 0 0 0.0531481 0"/>
<feBlend mode="normal" in2="effect4_dropShadow_25_1495" result="effect5_dropShadow_25_1495"/>
<feColorMatrix in="SourceAlpha" type="matrix" values="0 0 0 0 0 0 0 0 0 0 0 0 0 0 0 0 0 0 127 0" result="hardAlpha"/>
<feOffset dy="44.8511"/>
<feGaussianBlur stdDeviation="17.9404"/>
<feColorMatrix type="matrix" values="0 0 0 0 0.301961 0 0 0 0 0.87451 0 0 0 0 0.992157 0 0 0 0.07 0"/>
<feBlend mode="normal" in2="effect5_dropShadow_25_1495" result="effect6_dropShadow_25_1495"/>
<feBlend mode="normal" in="SourceGraphic" in2="effect6_dropShadow_25_1495" result="shape"/>
</filter>
</defs>
</svg>
