<svg width="5" height="7" viewBox="0 0 5 7" fill="none" xmlns="http://www.w3.org/2000/svg">
<path d="M4.82439 2.07565L4.30767 1.62504V0.0945009C4.30767 0.0461019 4.2805 0.00698219 4.24699 0.00698219H3.48096C3.4475 0.00698219 3.42033 0.0461019 3.42033 0.0945009V0.851328L2.45841 0.0125898C2.4523 0.00731599 2.44559 0.00391136 2.43869 0.00230919C2.42323 -0.00289788 2.40703 0.00077377 2.39342 0.0125898L0.0292541 2.07565C0.0111092 2.09141 0 2.11991 0 2.15049V2.87234C0 2.90371 0.0116183 2.93268 0.0304576 2.94824C0.0493432 2.96386 0.0725336 2.96373 0.0912803 2.9479L0.447329 2.6477V6.17395H0.277914C0.244402 6.17395 0.217277 6.21307 0.217277 6.26147V6.91248C0.217277 6.96082 0.244402 7 0.277914 7H4.57573C4.60924 7 4.63641 6.96082 4.63641 6.91248V6.26147C4.63641 6.21307 4.60924 6.17395 4.57573 6.17395H4.40631V2.6479L4.76241 2.9479C4.77185 2.95585 4.7824 2.95985 4.793 2.95985C4.80342 2.95985 4.81383 2.95598 4.82318 2.94824C4.84207 2.93268 4.85364 2.90371 4.85364 2.87234V2.15049C4.85364 2.11991 4.84253 2.09141 4.82439 2.07565ZM3.54165 0.181953H4.1863V1.51923L3.54165 0.957138V0.181953ZM4.51504 6.82496H0.338598V6.34892H4.51504V6.82496ZM2.97286 6.17395H1.88078V3.44104H2.97286V6.17395ZM4.28499 6.17395H3.09423V3.35352C3.09423 3.30512 3.06706 3.266 3.03354 3.266H1.8201C1.78663 3.266 1.75946 3.30512 1.75946 3.35352V6.17395H0.56865V2.54536L2.42592 0.979234L4.28499 2.54563V6.17395ZM4.73232 2.71993L2.45651 0.802328C2.44707 0.794384 2.43647 0.790378 2.42592 0.790378C2.41532 0.790378 2.40476 0.794384 2.39528 0.802328L0.121321 2.7198V2.19976L2.42592 0.188829L4.73232 2.19976V2.71993Z" fill="#31353B"/>
</svg>
