<svg width="406" height="13" viewBox="0 0 406 13" fill="none" xmlns="http://www.w3.org/2000/svg">
<path d="M5.577 5.84444C6.02531 5.88708 6.40189 6.10024 6.72468 6.50526C7.04746 6.91028 7.20885 7.46452 7.20885 8.16798C7.20885 9.02065 6.97573 9.72411 6.49155 10.2357C6.00738 10.7473 5.32594 11.0031 4.41139 11.0031H0V0.898935H4.39345C5.16455 0.898935 5.79219 1.15474 6.25843 1.64502C6.72468 2.15663 6.9578 2.81745 6.9578 3.64881C6.9578 4.28831 6.81434 4.7786 6.50949 5.1623C6.20463 5.54601 5.89978 5.73786 5.55907 5.78049L5.577 5.84444ZM2.0981 5.07704H3.92721C4.23206 5.07704 4.48312 4.97045 4.68037 4.75728C4.8597 4.54411 4.96729 4.28831 4.96729 3.92593C4.96729 3.60617 4.87763 3.37169 4.69831 3.17984C4.51898 2.98799 4.28586 2.90272 4.01687 2.90272H2.0981V5.07704ZM4.03481 8.99933C4.35759 8.99933 4.62658 8.89275 4.8059 8.7009C4.98523 8.50905 5.07489 8.23193 5.07489 7.86954C5.07489 7.52847 4.98523 7.27267 4.78797 7.08082C4.60864 6.88897 4.35759 6.78238 4.07067 6.78238H2.0981V8.99933H4.03481ZM14.4715 11.0031H12.4451V10.2783C11.943 10.9178 11.2795 11.2376 10.4905 11.2376C9.73733 11.2376 9.14556 10.9392 8.69725 10.3636C8.24894 9.78806 8.01581 9.02065 8.01581 8.08271V3.43564H10.0242V7.57111C10.0242 8.01876 10.1318 8.38115 10.3291 8.65826C10.5264 8.93538 10.7953 9.06329 11.1181 9.06329C11.5306 9.06329 11.8534 8.89275 12.0865 8.55168C12.3196 8.21061 12.4272 7.67769 12.4272 6.95292V3.43564H14.4536L14.4715 11.0031ZM20.7299 11.0031H15.3502V10.5555L17.8787 5.35415H15.4219V3.43564H20.6941V3.88329L18.1656 9.0846H20.712V11.0031H20.7299ZM26.9704 11.0031H21.6086V10.5555L24.1192 5.35415H21.6624V3.43564H26.9346V3.88329L24.4061 9.0846H26.9525L26.9704 11.0031Z" fill="#718087"/>
<path d="M84.2315 1.99982V5.22988H81.0345V1.99982L79.8701 1.99837V10.1427H81.0345V6.64387H84.2315V10.1427H85.3977V1.99982H84.2315Z" fill="#718087"/>
<path d="M99.7217 2.00006V10.141H104.83L104.183 8.70782H100.889V6.64411H104.079V5.26369H100.889V3.3997H104.178L104.811 2.00006H99.7217Z" fill="#718087"/>
<path d="M75.542 1.99778C74.3308 1.99778 73.7191 3.03425 73.7191 4.54238V7.58246C73.7191 9.32775 74.5074 10.1426 75.536 10.1426L79.1891 10.1421L78.5119 8.65348H75.7616C75.1774 8.65348 74.9228 8.35623 74.9228 7.43578V4.67762C74.9228 3.78783 75.1371 3.44071 75.7772 3.44071H78.5406L79.1908 1.99778H75.542Z" fill="#718087"/>
<path d="M94.6115 1.99585C93.912 1.99585 93.195 2.58767 93.195 4.10991V4.50104C93.195 6.08798 93.8849 6.69342 94.5751 6.69756H96.9976C97.2492 6.69756 97.4537 6.75642 97.4537 7.35505L97.4533 8.0466C97.4469 8.58441 97.2563 8.7075 96.989 8.7075H93.8019L93.149 10.1407H97.064C98.008 10.1407 98.649 9.47956 98.649 7.95246V7.39129C98.649 5.91479 98.0535 5.21716 97.1302 5.21716H94.817C94.5605 5.21716 94.3819 5.11864 94.3819 4.58399V4.02087C94.3819 3.56552 94.5044 3.39938 94.8032 3.39938L97.8383 3.39768L98.4727 1.99391L94.6115 1.99585Z" fill="#718087"/>
<path d="M88.7808 2.00006L86.0375 10.1425H87.3341L87.8684 8.46092H90.8495L91.3821 10.1425H92.6844L89.9347 2.00006H88.7808ZM89.3561 3.69062L90.4102 7.0749H88.3087L89.3561 3.69062Z" fill="#718087"/>
<path d="M184.393 5.64048V4.89984H183.676V3.74841L183.652 3.75798L182.966 4.02745V4.89984H181.903V4.41352C181.893 4.2294 181.935 4.04668 182.02 3.89849C182.062 3.84031 182.113 3.79466 182.169 3.76487C182.226 3.73509 182.287 3.72191 182.349 3.72629C182.456 3.72813 182.562 3.7591 182.66 3.81718L182.687 3.83232V3.05301L182.674 3.04723C182.545 2.99631 182.411 2.97327 182.276 2.97907C182.079 2.97509 181.885 3.03494 181.712 3.15307C181.548 3.26577 181.414 3.4364 181.324 3.64457C181.231 3.86585 181.184 4.11419 181.187 4.36568V4.89984H180.688V5.64048H181.187V8.76032H181.903V5.64048H182.966V7.62244C182.966 8.43962 183.266 8.8528 183.858 8.8528C183.96 8.85206 184.062 8.83756 184.162 8.80955C184.239 8.79282 184.313 8.7625 184.383 8.71946L184.393 8.71228V7.96486L184.364 7.98958C184.319 8.02567 184.271 8.05258 184.22 8.0693C184.174 8.08752 184.126 8.09791 184.078 8.10019C184.022 8.10646 183.966 8.09694 183.914 8.07232C183.861 8.0477 183.813 8.00857 183.773 7.95769C183.698 7.81184 183.664 7.63729 183.676 7.46299V5.64048H184.393ZM179.088 8.10079C178.974 8.10845 178.86 8.08287 178.754 8.02596C178.648 7.96905 178.554 7.88228 178.479 7.77213C178.321 7.50634 178.244 7.17711 178.26 6.84413C178.243 6.50338 178.32 6.16601 178.479 5.89142C178.553 5.78046 178.646 5.69271 178.75 5.63485C178.855 5.57699 178.968 5.55056 179.082 5.55757C179.192 5.55077 179.303 5.5759 179.404 5.6311C179.506 5.6863 179.597 5.77016 179.67 5.87647C179.827 6.14862 179.903 6.48368 179.884 6.82141C179.903 7.16033 179.831 7.49724 179.683 7.77811C179.61 7.88761 179.518 7.97378 179.415 8.02974C179.312 8.0857 179.2 8.1103 179.088 8.10079ZM179.12 4.80536C178.906 4.79024 178.691 4.83164 178.49 4.927C178.288 5.02237 178.104 5.16968 177.949 5.35985C177.804 5.56343 177.691 5.8021 177.619 6.06193C177.546 6.32177 177.515 6.59756 177.526 6.87323C177.516 7.1373 177.547 7.40133 177.618 7.64956C177.689 7.89779 177.798 8.12514 177.939 8.31804C178.086 8.49897 178.26 8.63961 178.45 8.73138C178.641 8.82315 178.844 8.86412 179.047 8.8518C179.259 8.86512 179.47 8.82205 179.667 8.7253C179.865 8.62855 180.044 8.48024 180.195 8.28974C180.339 8.08815 180.451 7.85196 180.523 7.59479C180.596 7.33762 180.628 7.06454 180.618 6.79131C180.641 6.25811 180.498 5.73509 180.221 5.33633C180.076 5.15483 179.904 5.01395 179.714 4.92265C179.524 4.83135 179.322 4.79162 179.12 4.80596V4.80536ZM176.371 4.80596C176.073 4.78979 175.78 4.90602 175.541 5.13503C175.438 5.23509 175.356 5.36487 175.299 5.51381C175.243 5.66275 175.215 5.82662 175.218 5.99207C175.215 6.15596 175.239 6.31877 175.287 6.47042C175.336 6.61012 175.409 6.7331 175.501 6.82918C175.635 6.95787 175.781 7.06298 175.936 7.1417C176.06 7.20424 176.181 7.27652 176.299 7.35815C176.36 7.39942 176.414 7.45663 176.458 7.52618C176.49 7.59171 176.505 7.66824 176.502 7.74542C176.502 8.00452 176.351 8.13089 176.039 8.13089C175.906 8.12681 175.774 8.0958 175.648 8.03901C175.505 7.97892 175.369 7.89092 175.247 7.77811L175.217 7.7508V8.63595L175.228 8.64252C175.35 8.71077 175.477 8.76125 175.608 8.793C175.741 8.83031 175.877 8.85034 176.013 8.8528C176.326 8.87377 176.635 8.75697 176.889 8.52174C176.994 8.41893 177.078 8.28588 177.134 8.13347C177.191 7.98106 177.219 7.81359 177.215 7.64477C177.221 7.40385 177.158 7.16854 177.04 6.98145C176.874 6.76055 176.67 6.59349 176.444 6.49414C176.291 6.4287 176.148 6.33307 176.019 6.21072C175.989 6.17138 175.967 6.12467 175.952 6.0735C175.937 6.02233 175.931 5.96781 175.933 5.91334C175.933 5.85962 175.942 5.80651 175.961 5.75859C175.98 5.71067 176.008 5.66938 176.042 5.63829C176.131 5.55905 176.238 5.52021 176.347 5.52787C176.47 5.52862 176.592 5.55273 176.71 5.59942C176.822 5.64149 176.929 5.70505 177.027 5.78797L177.056 5.81368V4.97518L177.045 4.969C176.941 4.91595 176.833 4.87733 176.723 4.8538C176.607 4.82456 176.489 4.80888 176.37 4.80696L176.371 4.80596ZM173.35 8.10079C173.236 8.10845 173.122 8.08287 173.016 8.02596C172.911 7.96905 172.817 7.88228 172.741 7.77213C172.584 7.50658 172.507 7.17775 172.522 6.84513C172.506 6.50437 172.583 6.167 172.741 5.89241C172.815 5.78142 172.908 5.69364 173.013 5.63578C173.117 5.57792 173.231 5.55151 173.345 5.55857C173.455 5.55176 173.565 5.5769 173.667 5.6321C173.769 5.6873 173.859 5.77116 173.932 5.87746C174.089 6.14961 174.165 6.48468 174.147 6.8224C174.165 7.16133 174.094 7.49824 173.945 7.7791C173.872 7.88861 173.781 7.9748 173.678 8.03076C173.574 8.08672 173.462 8.11091 173.351 8.10139L173.35 8.10079ZM173.383 4.80636C173.168 4.79121 172.954 4.8326 172.752 4.92797C172.551 5.02333 172.367 5.17066 172.212 5.36085C172.066 5.56441 171.954 5.80307 171.881 6.06291C171.809 6.32274 171.777 6.59854 171.788 6.87423C171.778 7.13832 171.809 7.40236 171.88 7.65059C171.951 7.89883 172.061 8.12617 172.202 8.31904C172.348 8.49998 172.522 8.64063 172.713 8.7324C172.904 8.82417 173.107 8.86513 173.31 8.8528C173.521 8.86611 173.732 8.82303 173.93 8.72628C174.127 8.62953 174.307 8.48123 174.458 8.29074C174.602 8.08915 174.713 7.85296 174.786 7.59579C174.859 7.33861 174.891 7.06554 174.881 6.79231C174.903 6.25907 174.761 5.73603 174.484 5.33733C174.339 5.15585 174.166 5.01499 173.977 4.92369C173.787 4.83239 173.585 4.79264 173.383 4.80696V4.80636ZM170.701 5.56853V4.89984H169.994V8.76032H170.701V6.78533C170.691 6.49496 170.753 6.20792 170.878 5.96536C170.928 5.86864 170.996 5.78957 171.076 5.73539C171.156 5.68121 171.245 5.65365 171.336 5.65523C171.408 5.65664 171.479 5.67004 171.548 5.69509C171.607 5.71172 171.662 5.74069 171.713 5.7808L171.743 5.8085V4.89326L171.732 4.88688C171.643 4.84617 171.549 4.82783 171.455 4.83287C171.282 4.83069 171.114 4.90788 170.981 5.05052C170.857 5.19029 170.764 5.36879 170.709 5.56873L170.701 5.56853ZM168.726 4.80676C168.427 4.79901 168.13 4.89044 167.866 5.07224C167.623 5.24388 167.425 5.50467 167.299 5.82126C167.165 6.16547 167.098 6.54608 167.104 6.93063C167.1 7.2774 167.165 7.61963 167.293 7.9252C167.414 8.21482 167.598 8.45337 167.823 8.61223C168.06 8.77631 168.326 8.85941 168.596 8.85359C168.893 8.86584 169.188 8.77737 169.45 8.59708L169.46 8.5903V7.75817L169.43 7.78608C169.324 7.88464 169.207 7.96261 169.084 8.01748C168.975 8.06949 168.86 8.09798 168.745 8.10179C168.622 8.10943 168.5 8.08388 168.386 8.0268C168.272 7.96972 168.168 7.8824 168.082 7.77053C167.911 7.51703 167.823 7.18767 167.838 6.8525C167.825 6.50798 167.916 6.17033 168.093 5.91015C168.177 5.7941 168.28 5.70266 168.395 5.64201C168.509 5.58137 168.632 5.55291 168.756 5.55857C169 5.56348 169.236 5.66893 169.43 5.85933L169.459 5.88703V5.01006L169.45 5.00308C169.347 4.93513 169.236 4.88724 169.122 4.86097C168.992 4.82562 168.86 4.80739 168.727 4.80656L168.726 4.80676ZM166.617 4.89964H165.909V8.76032H166.617V4.89964ZM166.27 3.25511C166.158 3.25283 166.05 3.30732 165.969 3.40679C165.928 3.4548 165.895 3.5134 165.874 3.57869C165.852 3.64399 165.841 3.71448 165.842 3.78548C165.841 3.85519 165.852 3.92442 165.873 3.98848C165.894 4.05255 165.926 4.10995 165.967 4.1568C166.049 4.25478 166.157 4.30783 166.269 4.30469C166.382 4.30757 166.491 4.25466 166.574 4.157C166.614 4.11048 166.647 4.05319 166.669 3.98905C166.69 3.92492 166.701 3.85547 166.7 3.78548C166.701 3.71556 166.69 3.64623 166.669 3.5818C166.648 3.51738 166.616 3.45923 166.577 3.41098C166.536 3.35975 166.488 3.31955 166.435 3.29276C166.383 3.26598 166.326 3.25317 166.269 3.25511H166.27ZM164.504 4.61482V8.76052H165.226V3.37351H164.226L162.956 7.3747L161.723 3.37351H160.683V8.76012H161.361V4.61442H161.385L162.686 8.76012H163.199L164.481 4.61442L164.504 4.61482Z" fill="#718087"/>
<path d="M154.908 5.84513H151.579V1.57327H154.908V5.84513Z" fill="#718087"/>
<path d="M158.583 5.84513H155.254V1.57327H158.583V5.84513Z" fill="#718087"/>
<path d="M154.908 10.5634H151.579V6.29156H154.908V10.5634Z" fill="#718087"/>
<path d="M158.583 10.5634H155.254V6.29156H158.583V10.5634Z" fill="#718087"/>
<path opacity="0.8" d="M238.15 7.80478V10.0336C237.56 10.7462 236.148 11.17 235.097 11.17C234.047 11.17 231.142 10.2785 231.142 6.08928C231.142 1.9001 233.907 0.99759 235.023 0.99759C236.14 0.99759 237.33 1.27529 238.019 1.9001V3.86041C238.019 4.10522 237.772 4.0833 237.772 3.86041C237.756 3.52608 237.099 1.52192 235.458 1.56577C233.685 1.6151 232.487 3.50598 232.487 5.99976C232.487 8.49353 233.652 10.6347 235.409 10.5671C235.98 10.5452 236.575 10.3004 236.863 9.97518L236.869 7.80478C236.869 7.18179 236.591 6.9589 236.312 6.9589C236.13 6.9589 236.13 6.60265 236.312 6.60265H238.708C238.888 6.60265 238.888 6.98083 238.708 6.9589C238.43 6.9589 238.15 7.18179 238.15 7.80478ZM254.301 3.86224C254.301 4.10705 254.121 4.08512 254.121 3.86224C254.103 3.52791 253.448 1.45615 251.806 1.50183C250.034 1.54933 248.835 3.50781 248.835 6.00159C248.835 8.49536 249.984 10.7023 251.74 10.6365C253.496 10.5689 254.333 8.20853 254.399 7.89612C254.465 7.58372 254.58 7.62939 254.58 7.8742V9.70114C253.858 10.4137 252.495 11.1718 251.445 11.1718C250.396 11.1718 247.49 10.2803 247.49 6.09111C247.49 1.9001 250.248 0.898935 251.363 0.898935C252.48 0.898935 253.612 1.27711 254.302 1.9001V3.86224H254.301ZM246.866 1.14375C247.128 1.14375 247.128 1.47808 246.866 1.47808C246.587 1.47808 246.309 1.70096 246.309 2.32395L246.276 7.19275C246.276 9.52393 244.883 11.2376 243.165 11.2376C241.446 11.2376 240.104 9.52393 240.104 7.19275V2.32395C240.104 1.69914 239.825 1.47808 239.546 1.47808C239.284 1.47808 239.284 1.14375 239.546 1.14375H241.975C242.238 1.14375 242.238 1.47808 241.975 1.47808C241.695 1.47808 241.417 1.70096 241.417 2.32395L241.414 7.76093C241.414 9.40518 242.404 10.7388 243.616 10.7388C244.827 10.7388 245.809 9.07085 245.809 7.42843L245.75 2.32395C245.75 1.69914 245.471 1.47808 245.192 1.47808C244.93 1.47808 244.93 1.14375 245.192 1.14375H246.866ZM262.327 3.86224C262.327 4.10705 262.147 4.08512 262.147 3.86224C262.131 3.52791 261.474 1.45615 259.832 1.50183C258.06 1.54933 256.861 3.50781 256.861 6.00159C256.861 8.49536 258.01 10.7023 259.766 10.6365C261.522 10.5708 262.36 8.20853 262.425 7.89612C262.491 7.58372 262.607 7.62939 262.607 7.8742V9.70114C261.884 10.4137 260.523 11.1718 259.472 11.1718C258.422 11.1718 255.516 10.2803 255.516 6.09111C255.516 1.9001 258.274 0.898935 259.391 0.898935C260.506 0.898935 261.64 1.27711 262.329 1.9001V3.86224H262.327Z" fill="#718087"/>
<path d="M323.096 3.04953C323.096 3.48693 322.86 3.83913 322.567 3.83913C322.274 3.83913 322.037 3.48693 322.037 3.04953C322.037 2.61213 322.266 2.25993 322.567 2.25993C322.868 2.27207 323.096 2.62439 323.096 3.04953ZM320.914 4.6411V4.83553C320.914 4.83553 320.661 4.34934 320.124 4.34934C319.236 4.34934 318.543 5.35776 318.543 6.75479C318.543 8.1398 319.228 9.16023 320.124 9.16023C320.669 9.16023 320.914 8.66215 320.914 8.66215V8.86859C320.914 8.96581 320.962 9.0385 321.028 9.0385H321.687V4.47046H321.028C320.962 4.47083 320.914 4.55603 320.914 4.6411ZM320.914 7.56878C320.791 7.83614 320.547 8.06698 320.254 8.06698C319.733 8.06698 319.333 7.58104 319.333 6.75479C319.333 5.92866 319.733 5.44271 320.254 5.44271C320.539 5.44271 320.8 5.68569 320.914 5.94079V7.56878ZM322.176 4.47083H322.958V9.03886H322.176V4.47083ZM333.856 4.34922C333.318 4.34922 333.065 4.83541 333.065 4.83541V2.27207H332.284V9.03886H332.943C333.009 9.03886 333.057 8.95379 333.057 8.86871V8.66227C333.057 8.66227 333.31 9.16035 333.847 9.16035C334.735 9.16035 335.427 8.14016 335.427 6.75515C335.427 5.37014 334.735 4.34922 333.856 4.34922ZM333.725 8.05472C333.424 8.05472 333.188 7.82413 333.065 7.55664V5.92866C333.188 5.68569 333.448 5.43058 333.725 5.43058C334.246 5.43058 334.645 5.91652 334.645 6.74265C334.645 7.56878 334.246 8.05472 333.725 8.05472ZM331.876 6.32977V9.051H331.094V6.46327C331.094 5.7102 330.932 5.40631 330.492 5.40631C330.256 5.40631 330.011 5.58859 329.856 5.85596V9.03899H329.075V4.47095H329.694C329.759 4.47095 329.808 4.55603 329.808 4.6411V4.83553C330.036 4.48309 330.337 4.34934 330.638 4.34934C330.98 4.34934 331.266 4.49534 331.494 4.78686C331.77 5.12705 331.876 5.56432 331.876 6.32977ZM327.177 4.34922C326.639 4.34922 326.387 4.83541 326.387 4.83541V2.27207H325.605V9.03886H326.265C326.33 9.03886 326.379 8.95379 326.379 8.86871V8.66227C326.379 8.66227 326.631 9.16035 327.169 9.16035C328.056 9.16035 328.749 8.14016 328.749 6.75515C328.757 5.37002 328.065 4.34922 327.177 4.34922ZM327.046 8.05472C326.745 8.05472 326.509 7.82413 326.387 7.55664V5.92866C326.509 5.68569 326.77 5.43058 327.046 5.43058C327.568 5.43058 327.967 5.91652 327.967 6.74265C327.967 7.56878 327.568 8.05472 327.046 8.05472ZM324.929 4.34922C325.165 4.34922 325.287 4.41015 325.287 4.41015V5.49126C325.287 5.49126 324.636 5.16321 324.228 5.85584V9.05088H323.446V4.47083H324.106C324.171 4.47083 324.22 4.55591 324.22 4.64098V4.83541C324.367 4.58018 324.685 4.34922 324.929 4.34922ZM316.809 8.62574C316.768 8.47998 316.727 8.32209 316.687 8.18834C316.621 7.96977 316.556 7.76308 316.499 7.56878L316.491 7.55664C315.929 5.73423 315.327 3.88779 314.691 2.06563L314.667 1.99256C314.6 1.80353 314.535 1.61318 314.471 1.42154C314.39 1.20272 314.308 0.97213 314.178 0.75331C313.918 0.267366 313.543 0 313.144 0C312.736 0 312.37 0.267367 312.101 0.728917C311.979 0.947494 311.889 1.17833 311.808 1.39715C311.745 1.58866 311.679 1.77902 311.613 1.96817L311.588 2.04123C310.961 3.8634 310.35 5.70996 309.788 7.53225L309.78 7.5564C309.723 7.75107 309.658 7.95751 309.593 8.17596C309.552 8.30971 309.511 8.45547 309.471 8.61336C309.365 9.06277 309.332 9.48804 309.373 9.92556C309.463 10.8368 309.87 11.6018 310.432 11.9423C310.644 12.076 310.863 12.1367 311.091 12.1367C311.157 12.1367 311.238 12.1246 311.303 12.1123C311.572 12.0638 311.849 11.9303 312.118 11.6994C312.452 11.4199 312.769 11.0192 313.128 10.436C313.486 11.0192 313.812 11.4199 314.138 11.6994C314.407 11.9303 314.683 12.0638 314.952 12.1123C315.017 12.1247 315.099 12.1367 315.164 12.1367C315.392 12.1367 315.62 12.076 315.824 11.9423C316.394 11.6018 316.793 10.8246 316.882 9.92556C316.947 9.50042 316.915 9.0754 316.809 8.62574ZM313.136 9.25744C312.696 8.43132 312.411 7.65385 312.313 6.998C312.272 6.7185 312.264 6.47553 312.289 6.25683C312.305 6.0624 312.354 5.89225 312.419 5.74649C312.574 5.41868 312.834 5.212 313.136 5.212C313.437 5.212 313.706 5.40642 313.852 5.74649C313.918 5.89225 313.966 6.06252 313.983 6.25683C314.007 6.47565 313.999 6.73063 313.958 6.998C313.86 7.64172 313.575 8.4193 313.136 9.25744ZM316.385 9.82847C316.328 10.4602 316.043 11.007 315.644 11.25C315.449 11.3714 315.237 11.4079 315.025 11.3714C314.822 11.3348 314.618 11.2376 314.406 11.0556C314.113 10.8124 313.82 10.436 313.478 9.87701C314.015 8.89311 314.341 7.99392 314.463 7.19231C314.52 6.81559 314.528 6.47553 314.504 6.15949C314.471 5.85584 314.398 5.57634 314.284 5.33336C314.031 4.7865 313.608 4.47083 313.136 4.47083C312.663 4.47083 312.24 4.79888 311.987 5.33336C311.873 5.57634 311.8 5.85584 311.767 6.15949C311.735 6.47553 311.743 6.82773 311.808 7.19231C311.93 7.99392 312.264 8.90512 312.793 9.88915C312.459 10.448 312.158 10.8247 311.865 11.0677C311.653 11.25 311.45 11.3472 311.246 11.3835C311.026 11.42 310.814 11.3714 310.627 11.2621C310.228 11.0192 309.943 10.4723 309.886 9.8406C309.861 9.53695 309.878 9.23329 309.959 8.89311C309.984 8.7715 310.024 8.65014 310.065 8.50438C310.122 8.30995 310.187 8.10327 310.252 7.89683L310.261 7.87267C310.822 6.0624 311.425 4.21584 312.052 2.41795L312.077 2.34489C312.142 2.16284 312.207 1.96841 312.272 1.78612C312.337 1.5917 312.411 1.40941 312.5 1.25139C312.671 0.960115 312.899 0.801977 313.152 0.801977C313.404 0.801977 313.632 0.960115 313.803 1.25139C313.893 1.40977 313.966 1.59206 314.031 1.78612C314.097 1.96841 314.162 2.16284 314.227 2.34489L314.251 2.41795C314.869 4.22331 315.464 6.04593 316.035 7.88481V7.89695C316.1 8.09162 316.157 8.31007 316.222 8.50474C316.263 8.65026 316.304 8.77162 316.328 8.89323C316.393 9.20878 316.418 9.51268 316.385 9.82847Z" fill="#718087"/>
<path d="M386.044 2.47221H386.96V6.67616C386.96 8.88799 385.983 9.66433 384.565 9.66433C383.153 9.66433 382.176 8.88799 382.176 6.67616V2.64066C382.176 2.52348 382.217 2.47221 382.298 2.47221H383.214V6.61024C383.214 7.93587 383.619 8.48517 384.565 8.48517C385.517 8.48517 385.922 7.93587 385.922 6.61024V2.64066C385.922 2.52348 385.963 2.47221 386.044 2.47221ZM396.416 3.62207V5.39446H398.734C398.775 5.39446 398.79 5.42376 398.775 5.48235L398.522 6.39052C398.496 6.47109 398.461 6.5077 398.385 6.5077H397.023C396.578 6.5077 396.416 6.70545 396.416 7.13756V8.38996H399.554C399.595 8.38996 399.61 8.41926 399.595 8.47785L399.332 9.42264C399.306 9.5032 399.271 9.53982 399.195 9.53982H395.758C395.494 9.53982 395.393 9.40799 395.393 9.12235V2.96291C395.393 2.61869 395.525 2.47221 395.869 2.47221H399.554C399.595 2.47221 399.61 2.50151 399.595 2.55277L399.332 3.50489C399.306 3.58545 399.271 3.62207 399.195 3.62207H396.416ZM393.505 7.58433C393.505 8.99785 392.817 9.53982 391.85 9.53982H389.288C389.02 9.53982 388.924 9.40799 388.924 9.12235V2.96291C388.924 2.61869 389.05 2.47221 389.4 2.47221H391.48C392.391 2.47221 393.272 2.69925 393.272 4.26658C393.272 4.94038 393.105 5.51165 392.705 5.81193C393.257 6.02432 393.505 6.74207 393.505 7.58433ZM389.931 5.41644H391.556C392.093 5.41644 392.245 5.11615 392.245 4.50094C392.245 3.88573 392.093 3.59277 391.556 3.59277H389.931V5.41644ZM392.477 7.45249C392.477 6.80066 392.321 6.47841 391.743 6.47841H390.544C390.098 6.47841 389.931 6.67616 389.931 7.10827V8.41926H391.743C392.321 8.41926 392.477 8.097 392.477 7.45249ZM405.943 9.53982H405.011C404.935 9.53982 404.905 9.49588 404.874 9.42264L403.887 6.84461H402.981C402.536 6.84461 402.369 7.04235 402.369 7.47447V9.53982H401.478C401.397 9.53982 401.356 9.48123 401.356 9.37137V2.96291C401.356 2.61869 401.488 2.47221 401.832 2.47221H403.923C405.143 2.47221 405.877 2.93362 405.877 4.64742C405.877 5.97306 405.436 6.49306 404.89 6.69813L405.988 9.41531C406.008 9.45926 406.008 9.53982 405.943 9.53982ZM404.849 4.67672C404.849 3.95897 404.712 3.60742 404.075 3.60742H402.369V5.74601H404.075C404.712 5.74601 404.849 5.40179 404.849 4.67672Z" fill="#718087"/>
</svg>
